<svg version="1.1" id="Layer_1" xmlns="http://www.w3.org/2000/svg" xmlns:xlink="http://www.w3.org/1999/xlink" x="0px" y="0px"
	 width="100%" viewBox="0 0 166 108" enable-background="new 0 0 166 108" xml:space="preserve">
<path fill="#FFFEFE" opacity="1.000000" stroke="none" 
	d="
M123.000000,109.000000 
	C82.000008,109.000000 41.500011,109.000000 1.000011,109.000000 
	C1.000007,73.000008 1.000007,37.000019 1.000004,1.000021 
	C56.333317,1.000014 111.666634,1.000014 166.999969,1.000007 
	C166.999969,36.999981 166.999969,72.999962 166.999985,108.999969 
	C152.500000,109.000000 138.000000,109.000000 123.000000,109.000000 
M76.925598,52.011307 
	C77.326317,51.352962 77.727036,50.694618 78.640755,49.638897 
	C79.149460,48.454155 79.658157,47.269413 80.662743,45.566090 
	C81.180031,43.183578 81.697311,40.801067 82.828758,38.015675 
	C82.616211,35.885490 82.403664,33.755306 82.157738,30.914043 
	C80.410706,29.317852 78.925034,27.062206 76.868431,26.247129 
	C70.274284,23.633736 63.619846,25.327272 57.540043,27.930834 
	C38.412910,36.121670 24.554285,50.020470 15.807893,68.818245 
	C12.324553,76.304649 10.728936,84.306015 13.137318,92.608261 
	C14.868793,98.577049 18.791933,101.935692 22.470865,101.695175 
	C21.828857,96.347145 20.123535,90.840614 20.741074,85.608246 
	C22.404514,71.514061 28.880915,59.181778 38.098206,48.634983 
	C45.236813,40.466713 52.369568,31.757147 64.539406,29.596176 
	C65.141220,29.122467 65.743042,28.648758 67.141380,28.194639 
	C75.192558,28.222895 77.063545,29.821854 78.227608,37.671818 
	C78.422325,38.984917 78.611748,40.298801 78.185951,41.996876 
	C77.325165,44.599407 76.464378,47.201942 75.176399,50.221359 
	C74.936775,50.775341 74.697151,51.329323 73.908226,52.223248 
	C72.875519,53.754700 71.842812,55.286152 70.810104,56.817604 
	C71.436996,57.201763 72.063896,57.585918 72.690796,57.970074 
	C73.922440,56.064682 75.154083,54.159290 76.925598,52.011307 
M26.328146,101.897964 
	C25.947548,102.249092 25.566952,102.600220 25.186354,102.951347 
	C25.793512,103.285988 26.400669,103.620628 27.603390,104.528336 
	C36.961296,106.061485 45.503567,104.173073 53.833534,98.188942 
	C56.986408,96.285545 60.139286,94.382149 63.292160,92.478752 
	C62.886673,91.846718 62.481182,91.214684 62.075691,90.582649 
	C58.987122,92.599442 55.898556,94.616234 52.053261,96.759155 
	C44.000671,99.888779 36.060371,103.561058 26.328146,101.897964 
M118.755623,78.027802 
	C119.028198,77.329185 119.300774,76.630569 119.872208,75.243690 
	C120.482956,73.700645 121.047211,72.137260 121.711815,70.617775 
	C126.965927,58.605259 126.971802,58.607826 140.326599,58.417717 
	C140.869049,58.225460 141.411514,58.033203 142.542328,57.847683 
	C143.034714,57.575924 143.527100,57.304165 144.413528,56.864388 
	C144.281647,56.562206 144.149765,56.260021 143.163925,55.839832 
	C139.054840,55.687321 134.945740,55.534805 130.811691,54.553532 
	C130.720734,54.012226 130.629791,53.470917 130.867508,52.271622 
	C131.541595,50.938267 132.183777,49.587639 132.894882,48.274330 
	C137.840378,39.140568 141.603775,29.382296 149.483429,21.912994 
	C151.847031,19.672476 152.178345,14.953914 152.746582,11.263724 
	C153.168747,8.522201 151.164551,7.704781 148.902115,9.200152 
	C146.565842,10.744329 144.250168,12.431602 142.292191,14.417795 
	C130.758133,26.118078 119.199028,37.799644 107.943077,49.764767 
	C104.246864,53.693859 100.417198,56.052227 94.712875,54.689266 
	C94.137177,54.771439 93.561470,54.853615 92.122063,54.882614 
	C89.496696,55.396740 85.799957,53.003109 84.190224,57.904896 
	C84.434479,58.648636 84.678741,59.392376 85.674988,60.293743 
	C89.153114,60.094894 92.631233,59.896046 96.199890,60.411495 
	C96.276375,60.638985 96.352867,60.866478 95.954262,61.606815 
	C85.605713,70.817612 75.257164,80.028404 64.908615,89.239204 
	C65.304001,89.738281 65.699394,90.237366 66.094780,90.736450 
	C70.392685,87.473083 74.690590,84.209717 79.425545,80.716713 
	C79.702950,80.532372 79.947525,80.311646 80.774239,79.776955 
	C86.824738,74.435265 92.924011,69.147568 98.912743,63.737492 
	C105.604630,57.692184 111.382126,56.463116 118.718666,59.908184 
	C118.193390,61.082970 117.663445,62.276321 117.126961,63.466724 
	C113.218613,72.139030 109.987274,80.998077 110.019325,90.687675 
	C110.039520,96.792465 111.573654,98.095062 118.632553,97.780800 
	C121.063377,96.404648 123.494202,95.028503 125.925034,93.652359 
	C125.605904,93.158882 125.286774,92.665405 124.967651,92.171928 
	C122.631874,93.161949 120.296089,94.151970 117.488701,94.716965 
	C117.178543,94.165138 116.868385,93.613312 116.767464,92.201027 
	C116.652145,90.447441 116.536827,88.693863 116.675934,86.158562 
	C117.185516,83.544434 117.695099,80.930305 118.755623,78.027802 
z"/>
<path fill="#F9AB94" opacity="1.000000" stroke="none" 
	d="
M96.109360,59.697197 
	C92.631233,59.896046 89.153114,60.094894 85.308815,59.792145 
	C84.857437,58.734390 84.772232,58.178230 84.687027,57.622070 
	C85.799957,53.003109 89.496696,55.396740 92.684540,55.139324 
	C93.819801,55.311874 94.392578,55.227711 94.965355,55.143551 
	C100.417198,56.052227 104.246864,53.693859 107.943077,49.764767 
	C119.199028,37.799644 130.758133,26.118078 142.292191,14.417795 
	C144.250168,12.431602 146.565842,10.744329 148.902115,9.200152 
	C151.164551,7.704781 153.168747,8.522201 152.746582,11.263724 
	C152.178345,14.953914 151.847031,19.672476 149.483429,21.912994 
	C141.603775,29.382296 137.840378,39.140568 132.894882,48.274330 
	C132.183777,49.587639 131.541595,50.938267 130.438538,52.690613 
	C129.750351,53.792160 129.491135,54.474720 129.231934,55.157280 
	C129.766846,55.232285 130.301743,55.307285 130.836655,55.382290 
	C134.945740,55.534805 139.054840,55.687321 143.582855,56.167664 
	C144.007690,56.674469 144.013596,56.853439 144.019485,57.032410 
	C143.527100,57.304165 143.034714,57.575924 142.089539,57.643059 
	C141.088608,57.635658 140.540466,57.832878 139.992325,58.030102 
	C126.971802,58.607826 126.965927,58.605259 121.711815,70.617775 
	C121.047211,72.137260 120.482956,73.700645 119.436432,75.689117 
	C118.735329,76.861755 118.470009,77.588966 118.204681,78.316177 
	C117.695099,80.930305 117.185516,83.544434 116.260956,86.691612 
	C116.083397,89.170273 116.320816,91.115875 116.558235,93.061485 
	C116.868385,93.613312 117.178543,94.165138 117.733337,95.247131 
	C117.959061,96.411171 117.940163,97.045052 117.921265,97.678932 
	C111.573654,98.095062 110.039520,96.792465 110.019325,90.687675 
	C109.987274,80.998077 113.218613,72.139030 117.126961,63.466724 
	C117.663445,62.276321 118.193390,61.082970 118.718666,59.908184 
	C111.382126,56.463116 105.604630,57.692184 98.912743,63.737492 
	C92.924011,69.147568 86.824738,74.435265 80.212563,79.977364 
	C79.430084,80.433960 79.209282,80.690147 78.988487,80.946350 
	C74.690590,84.209717 70.392685,87.473083 66.094780,90.736450 
	C65.699394,90.237366 65.304001,89.738281 64.908615,89.239204 
	C75.257164,80.028404 85.605713,70.817612 96.429184,61.280582 
	C97.075218,60.440582 97.246338,59.926815 97.417450,59.413048 
	C96.981422,59.507763 96.545387,59.602482 96.109360,59.697197 
M124.418152,48.912807 
	C127.658127,43.293903 130.898102,37.674999 134.138062,32.056095 
	C133.759140,31.788675 133.380203,31.521254 133.001282,31.253834 
	C125.398491,39.318733 117.795708,47.383633 110.466164,55.158688 
	C117.043617,57.499889 119.913101,56.439800 124.418152,48.912807 
z"/>
<path fill="#F9AA93" opacity="1.000000" stroke="none" 
	d="
M78.803612,41.612324 
	C78.611748,40.298801 78.422325,38.984917 78.227608,37.671818 
	C77.063545,29.821854 75.192558,28.222895 66.433029,28.145857 
	C65.141731,28.514599 64.558800,28.932125 63.975864,29.349649 
	C52.369568,31.757147 45.236813,40.466713 38.098206,48.634983 
	C28.880915,59.181778 22.404514,71.514061 20.741074,85.608246 
	C20.123535,90.840614 21.828857,96.347145 22.470865,101.695175 
	C18.791933,101.935692 14.868793,98.577049 13.137318,92.608261 
	C10.728936,84.306015 12.324553,76.304649 15.807893,68.818245 
	C24.554285,50.020470 38.412910,36.121670 57.540043,27.930834 
	C63.619846,25.327272 70.274284,23.633736 76.868431,26.247129 
	C78.925034,27.062206 80.410706,29.317852 82.112526,31.755938 
	C82.116409,34.538074 82.165504,36.478313 82.214600,38.418556 
	C81.697311,40.801067 81.180031,43.183578 80.067902,45.760948 
	C79.249908,44.507977 79.026764,43.060150 78.803612,41.612324 
z"/>
<path fill="#FABCA9" opacity="1.000000" stroke="none" 
	d="
M53.130112,98.443237 
	C45.503567,104.173073 36.961296,106.061485 27.302528,103.906128 
	C27.009239,102.835403 27.016813,102.386879 27.024387,101.938354 
	C36.060371,103.561058 44.000671,99.888779 52.517601,97.148926 
	C53.031330,97.840210 53.080719,98.141724 53.130112,98.443237 
z"/>
<path fill="#F9B4A0" opacity="1.000000" stroke="none" 
	d="
M53.481823,98.316086 
	C53.080719,98.141724 53.031330,97.840210 52.895966,97.085861 
	C55.898556,94.616234 58.987122,92.599442 62.075691,90.582649 
	C62.481182,91.214684 62.886673,91.846718 63.292160,92.478752 
	C60.139286,94.382149 56.986408,96.285545 53.481823,98.316086 
z"/>
<path fill="#F9BCAA" opacity="1.000000" stroke="none" 
	d="
M118.276909,97.729866 
	C117.940163,97.045052 117.959061,96.411171 117.969139,95.459641 
	C120.296089,94.151970 122.631874,93.161949 124.967651,92.171928 
	C125.286774,92.665405 125.605904,93.158882 125.925034,93.652359 
	C123.494202,95.028503 121.063377,96.404648 118.276909,97.729866 
z"/>
<path fill="#FAB4A0" opacity="1.000000" stroke="none" 
	d="
M78.494781,41.804600 
	C79.026764,43.060150 79.249908,44.507977 79.819962,46.020237 
	C79.658157,47.269413 79.149460,48.454155 77.962814,49.815262 
	C76.724442,49.929245 76.164017,49.866859 75.603584,49.804474 
	C76.464378,47.201942 77.325165,44.599407 78.494781,41.804600 
z"/>
<path fill="#FAB4A0" opacity="1.000000" stroke="none" 
	d="
M76.385727,52.253899 
	C75.154083,54.159290 73.922440,56.064682 72.690796,57.970074 
	C72.063896,57.585918 71.436996,57.201763 70.810104,56.817604 
	C71.842812,55.286152 72.875519,53.754700 74.669373,52.127838 
	C75.748917,52.106251 76.067322,52.180073 76.385727,52.253899 
z"/>
<path fill="#FAB4A0" opacity="1.000000" stroke="none" 
	d="
M82.521683,38.217117 
	C82.165504,36.478313 82.116409,34.538074 82.129211,32.111477 
	C82.403664,33.755306 82.616211,35.885490 82.521683,38.217117 
z"/>
<path fill="#F9BCAA" opacity="1.000000" stroke="none" 
	d="
M116.662849,92.631256 
	C116.320816,91.115875 116.083397,89.170273 116.133743,87.082474 
	C116.536827,88.693863 116.652145,90.447441 116.662849,92.631256 
z"/>
<path fill="#F9AA93" opacity="1.000000" stroke="none" 
	d="
M76.655663,52.132603 
	C76.067322,52.180073 75.748917,52.106251 74.944023,51.957863 
	C74.697151,51.329323 74.936775,50.775341 75.389992,50.012917 
	C76.164017,49.866859 76.724442,49.929245 77.706314,50.013947 
	C77.727036,50.694618 77.326317,51.352962 76.655663,52.132603 
z"/>
<path fill="#F9BCAA" opacity="1.000000" stroke="none" 
	d="
M130.824173,54.967911 
	C130.301743,55.307285 129.766846,55.232285 129.231934,55.157280 
	C129.491135,54.474720 129.750351,53.792160 130.274200,53.019608 
	C130.629791,53.470917 130.720734,54.012226 130.824173,54.967911 
z"/>
<path fill="#F9AA93" opacity="1.000000" stroke="none" 
	d="
M26.676266,101.918159 
	C27.016813,102.386879 27.009239,102.835403 27.004745,103.619598 
	C26.400669,103.620628 25.793512,103.285988 25.186354,102.951347 
	C25.566952,102.600220 25.947548,102.249092 26.676266,101.918159 
z"/>
<path fill="#F9BCAA" opacity="1.000000" stroke="none" 
	d="
M118.480156,78.171989 
	C118.470009,77.588966 118.735329,76.861755 119.286995,76.033249 
	C119.300774,76.630569 119.028198,77.329185 118.480156,78.171989 
z"/>
<path fill="#F9C0AE" opacity="1.000000" stroke="none" 
	d="
M96.154625,60.054344 
	C96.545387,59.602482 96.981422,59.507763 97.417450,59.413048 
	C97.246338,59.926815 97.075218,60.440582 96.666733,61.024158 
	C96.352867,60.866478 96.276375,60.638985 96.154625,60.054344 
z"/>
<path fill="#F9C0AE" opacity="1.000000" stroke="none" 
	d="
M84.438629,57.763481 
	C84.772232,58.178230 84.857437,58.734390 84.932823,59.713333 
	C84.678741,59.392376 84.434479,58.648636 84.438629,57.763481 
z"/>
<path fill="#F9BCAA" opacity="1.000000" stroke="none" 
	d="
M140.159454,58.223907 
	C140.540466,57.832878 141.088608,57.635658 141.795349,57.639690 
	C141.411514,58.033203 140.869049,58.225460 140.159454,58.223907 
z"/>
<path fill="#F9C0AE" opacity="1.000000" stroke="none" 
	d="
M94.839111,54.916409 
	C94.392578,55.227711 93.819801,55.311874 93.116394,55.165913 
	C93.561470,54.853615 94.137177,54.771439 94.839111,54.916409 
z"/>
<path fill="#FAB4A0" opacity="1.000000" stroke="none" 
	d="
M64.257637,29.472912 
	C64.558800,28.932125 65.141731,28.514599 66.034760,28.136063 
	C65.743042,28.648758 65.141220,29.122467 64.257637,29.472912 
z"/>
<path fill="#F9B4A0" opacity="1.000000" stroke="none" 
	d="
M79.207016,80.831528 
	C79.209282,80.690147 79.430084,80.433960 79.905075,80.116150 
	C79.947525,80.311646 79.702950,80.532372 79.207016,80.831528 
z"/>
<path fill="#F9BCAA" opacity="1.000000" stroke="none" 
	d="
M144.216507,56.948399 
	C144.013596,56.853439 144.007690,56.674469 144.009827,56.226669 
	C144.149765,56.260021 144.281647,56.562206 144.216507,56.948399 
z"/>
<path fill="#FEF5F2" opacity="1.000000" stroke="none" 
	d="
M124.206810,49.214485 
	C119.913101,56.439800 117.043617,57.499889 110.466164,55.158688 
	C117.795708,47.383633 125.398491,39.318733 133.001282,31.253834 
	C133.380203,31.521254 133.759140,31.788675 134.138062,32.056095 
	C130.898102,37.674999 127.658127,43.293903 124.206810,49.214485 
z"/>
</svg>